<svg xmlns:dc="http://purl.org/dc/elements/1.1/" xmlns:cc="http://creativecommons.org/ns#" xmlns:rdf="http://www.w3.org/1999/02/22-rdf-syntax-ns#" xmlns:svg="http://www.w3.org/2000/svg" xmlns="http://www.w3.org/2000/svg" xmlns:sodipodi="http://sodipodi.sourceforge.net/DTD/sodipodi-0.dtd" xmlns:inkscape="http://www.inkscape.org/namespaces/inkscape" version="1.1" width="100" height="100.66137547716039" style=""><rect id="backgroundrect" width="100%" height="100%" x="0" y="0" fill="none" stroke="none" class="selected" style=""/><g class="currentLayer" style=""><title>Layer 1</title><g id="svg_1" class=""><path d="M48.187519,5.595047382812481 L8.1875184,35.594617382812544 c-0.7388990000000002,0.56026 -1.192299,1.47893 -1.1875,2.40621 l0,53.99919 c0.00019999999999999998,1.5708000000000002 1.4292,2.9998 2.9999996,3 l27.000001,0 c1.5708000000000002,-0.00019999999999999998 2.9998,-1.4292 3,-3 l0,-30.9991 l20,0 l0,30.9991 c0.00019999999999999998,1.5708000000000002 1.4292,2.9998 3,3 l27,0 c1.5708000000000002,-0.00019999999999999998 2.9998,-1.4292 3,-3 l0,-53.99919 c0,-0.92728 -0.44860000000000005,-1.8459500000000002 -1.1875,-2.40621 l-40,-29.99957 c-1.3099,-0.8318000000000001 -2.4519,-0.7540200000000001 -3.625,0 zm1.8125,6.15616 l37,27.74958 l0,49.49933 l-21,0 l0,-30.9992 c-0.00019999999999999998,-1.5707 -1.4292,-4.9998000000000005 -3,-4.9999 l-26,0 c-1.5708000000000002,0.00009999999999999999 -2.9998,3.4292 -3,4.9999 l0,30.9992 l-21.000001,0 l0,-49.49933 z" style="text-indent:0;text-transform:none;direction:ltr;block-progression:tb;baseline-shift:baseline;color:#000000;enable-background:accumulate;" fill="#000000" fill-opacity="1" stroke="none" marker="none" visibility="visible" display="inline" overflow="visible" id="svg_2"/></g></g></svg>